<mxfile host="app.diagrams.net" modified="2020-06-21T12:51:35.978Z" agent="5.0 (Windows NT 10.0; Win64; x64) AppleWebKit/537.36 (KHTML, like Gecko) Chrome/83.0.4103.106 Safari/537.36" etag="_qvqB2e65cyXiM_2FNni" version="13.3.0" type="github">
  <diagram id="OhNcNqwnY1htFXau7SXt" name="第 1 页">
    <mxGraphModel dx="981" dy="532" grid="1" gridSize="10" guides="1" tooltips="1" connect="1" arrows="1" fold="1" page="1" pageScale="1" pageWidth="827" pageHeight="1169" math="0" shadow="0">
      <root>
        <mxCell id="0" />
        <mxCell id="1" parent="0" />
        <mxCell id="qff0FxHDjrdp41vnvgfk-11" value="" style="ellipse;whiteSpace=wrap;html=1;aspect=fixed;fillColor=#B5559F;strokeColor=#9673A6;fontFamily=Times New Roman;" vertex="1" parent="1">
          <mxGeometry x="80" y="80" width="30" height="30" as="geometry" />
        </mxCell>
        <mxCell id="qff0FxHDjrdp41vnvgfk-19" value="" style="ellipse;whiteSpace=wrap;html=1;aspect=fixed;fillColor=#B5559F;strokeColor=#9673A6;" vertex="1" parent="1">
          <mxGeometry x="80" y="120" width="30" height="30" as="geometry" />
        </mxCell>
        <mxCell id="qff0FxHDjrdp41vnvgfk-20" value="" style="ellipse;whiteSpace=wrap;html=1;aspect=fixed;fillColor=#B5559F;strokeColor=#9673A6;" vertex="1" parent="1">
          <mxGeometry x="80" y="160" width="30" height="30" as="geometry" />
        </mxCell>
        <mxCell id="qff0FxHDjrdp41vnvgfk-21" value="" style="ellipse;whiteSpace=wrap;html=1;aspect=fixed;fillColor=#B5559F;strokeColor=#9673A6;" vertex="1" parent="1">
          <mxGeometry x="80" y="200" width="30" height="30" as="geometry" />
        </mxCell>
        <mxCell id="qff0FxHDjrdp41vnvgfk-22" value="" style="ellipse;whiteSpace=wrap;html=1;aspect=fixed;fillColor=#B5559F;strokeColor=#9673A6;" vertex="1" parent="1">
          <mxGeometry x="80" y="240" width="30" height="30" as="geometry" />
        </mxCell>
        <mxCell id="qff0FxHDjrdp41vnvgfk-23" value="" style="ellipse;whiteSpace=wrap;html=1;aspect=fixed;fillColor=#B5559F;strokeColor=#9673A6;" vertex="1" parent="1">
          <mxGeometry x="80" y="280" width="30" height="30" as="geometry" />
        </mxCell>
        <mxCell id="qff0FxHDjrdp41vnvgfk-26" value="" style="ellipse;whiteSpace=wrap;html=1;aspect=fixed;fillColor=#B5559F;strokeColor=#9673A6;" vertex="1" parent="1">
          <mxGeometry x="155" y="120" width="30" height="30" as="geometry" />
        </mxCell>
        <mxCell id="qff0FxHDjrdp41vnvgfk-27" value="" style="ellipse;whiteSpace=wrap;html=1;aspect=fixed;fillColor=#B5559F;strokeColor=#9673A6;" vertex="1" parent="1">
          <mxGeometry x="155" y="160" width="30" height="30" as="geometry" />
        </mxCell>
        <mxCell id="qff0FxHDjrdp41vnvgfk-28" value="" style="ellipse;whiteSpace=wrap;html=1;aspect=fixed;fillColor=#B5559F;strokeColor=#9673A6;" vertex="1" parent="1">
          <mxGeometry x="155" y="200" width="30" height="30" as="geometry" />
        </mxCell>
        <mxCell id="qff0FxHDjrdp41vnvgfk-29" value="" style="ellipse;whiteSpace=wrap;html=1;aspect=fixed;fillColor=#B5559F;strokeColor=#9673A6;" vertex="1" parent="1">
          <mxGeometry x="155" y="240" width="30" height="30" as="geometry" />
        </mxCell>
        <mxCell id="qff0FxHDjrdp41vnvgfk-31" value="" style="ellipse;whiteSpace=wrap;html=1;aspect=fixed;fillColor=#B5559F;strokeColor=#9673A6;fontFamily=Times New Roman;" vertex="1" parent="1">
          <mxGeometry x="230" y="80" width="30" height="30" as="geometry" />
        </mxCell>
        <mxCell id="qff0FxHDjrdp41vnvgfk-32" value="" style="ellipse;whiteSpace=wrap;html=1;aspect=fixed;fillColor=#B5559F;strokeColor=#9673A6;" vertex="1" parent="1">
          <mxGeometry x="230" y="120" width="30" height="30" as="geometry" />
        </mxCell>
        <mxCell id="qff0FxHDjrdp41vnvgfk-33" value="" style="ellipse;whiteSpace=wrap;html=1;aspect=fixed;fillColor=#B5559F;strokeColor=#9673A6;" vertex="1" parent="1">
          <mxGeometry x="230" y="160" width="30" height="30" as="geometry" />
        </mxCell>
        <mxCell id="qff0FxHDjrdp41vnvgfk-34" value="" style="ellipse;whiteSpace=wrap;html=1;aspect=fixed;fillColor=#B5559F;strokeColor=#9673A6;" vertex="1" parent="1">
          <mxGeometry x="230" y="200" width="30" height="30" as="geometry" />
        </mxCell>
        <mxCell id="qff0FxHDjrdp41vnvgfk-35" value="" style="ellipse;whiteSpace=wrap;html=1;aspect=fixed;fillColor=#B5559F;strokeColor=#9673A6;" vertex="1" parent="1">
          <mxGeometry x="230" y="240" width="30" height="30" as="geometry" />
        </mxCell>
        <mxCell id="qff0FxHDjrdp41vnvgfk-36" value="" style="ellipse;whiteSpace=wrap;html=1;aspect=fixed;fillColor=#B5559F;strokeColor=#9673A6;" vertex="1" parent="1">
          <mxGeometry x="230" y="280" width="30" height="30" as="geometry" />
        </mxCell>
        <mxCell id="qff0FxHDjrdp41vnvgfk-37" value="" style="ellipse;whiteSpace=wrap;html=1;aspect=fixed;fillColor=#B5559F;strokeColor=#9673A6;fontFamily=Times New Roman;" vertex="1" parent="1">
          <mxGeometry x="305" y="80" width="30" height="30" as="geometry" />
        </mxCell>
        <mxCell id="qff0FxHDjrdp41vnvgfk-38" value="" style="ellipse;whiteSpace=wrap;html=1;aspect=fixed;fillColor=#B5559F;strokeColor=#9673A6;" vertex="1" parent="1">
          <mxGeometry x="305" y="120" width="30" height="30" as="geometry" />
        </mxCell>
        <mxCell id="qff0FxHDjrdp41vnvgfk-39" value="" style="ellipse;whiteSpace=wrap;html=1;aspect=fixed;fillColor=#B5559F;strokeColor=#9673A6;" vertex="1" parent="1">
          <mxGeometry x="305" y="160" width="30" height="30" as="geometry" />
        </mxCell>
        <mxCell id="qff0FxHDjrdp41vnvgfk-40" value="" style="ellipse;whiteSpace=wrap;html=1;aspect=fixed;fillColor=#B5559F;strokeColor=#9673A6;" vertex="1" parent="1">
          <mxGeometry x="305" y="200" width="30" height="30" as="geometry" />
        </mxCell>
        <mxCell id="qff0FxHDjrdp41vnvgfk-41" value="" style="ellipse;whiteSpace=wrap;html=1;aspect=fixed;fillColor=#B5559F;strokeColor=#9673A6;" vertex="1" parent="1">
          <mxGeometry x="305" y="240" width="30" height="30" as="geometry" />
        </mxCell>
        <mxCell id="qff0FxHDjrdp41vnvgfk-42" value="" style="ellipse;whiteSpace=wrap;html=1;aspect=fixed;fillColor=#B5559F;strokeColor=#9673A6;" vertex="1" parent="1">
          <mxGeometry x="305" y="280" width="30" height="30" as="geometry" />
        </mxCell>
        <mxCell id="qff0FxHDjrdp41vnvgfk-87" style="edgeStyle=none;rounded=0;orthogonalLoop=1;jettySize=auto;html=1;exitX=1;exitY=0.5;exitDx=0;exitDy=0;" edge="1" parent="1" source="qff0FxHDjrdp41vnvgfk-52" target="qff0FxHDjrdp41vnvgfk-59">
          <mxGeometry relative="1" as="geometry" />
        </mxCell>
        <mxCell id="qff0FxHDjrdp41vnvgfk-52" value="" style="rounded=1;whiteSpace=wrap;html=1;strokeColor=#9673A6;fillColor=none;" vertex="1" parent="1">
          <mxGeometry x="75" y="70" width="40" height="250" as="geometry" />
        </mxCell>
        <mxCell id="qff0FxHDjrdp41vnvgfk-89" style="edgeStyle=none;rounded=0;orthogonalLoop=1;jettySize=auto;html=1;exitX=1;exitY=0.5;exitDx=0;exitDy=0;" edge="1" parent="1" source="qff0FxHDjrdp41vnvgfk-59" target="qff0FxHDjrdp41vnvgfk-66">
          <mxGeometry relative="1" as="geometry" />
        </mxCell>
        <mxCell id="qff0FxHDjrdp41vnvgfk-59" value="" style="rounded=1;whiteSpace=wrap;html=1;strokeColor=#9673A6;fillColor=none;" vertex="1" parent="1">
          <mxGeometry x="150" y="110" width="40" height="170" as="geometry" />
        </mxCell>
        <mxCell id="qff0FxHDjrdp41vnvgfk-93" style="edgeStyle=none;rounded=0;orthogonalLoop=1;jettySize=auto;html=1;exitX=1;exitY=0.5;exitDx=0;exitDy=0;entryX=0;entryY=0.5;entryDx=0;entryDy=0;" edge="1" parent="1" source="qff0FxHDjrdp41vnvgfk-66" target="qff0FxHDjrdp41vnvgfk-67">
          <mxGeometry relative="1" as="geometry" />
        </mxCell>
        <mxCell id="qff0FxHDjrdp41vnvgfk-66" value="" style="rounded=1;whiteSpace=wrap;html=1;strokeColor=#9673A6;fillColor=none;" vertex="1" parent="1">
          <mxGeometry x="225" y="70" width="40" height="250" as="geometry" />
        </mxCell>
        <mxCell id="qff0FxHDjrdp41vnvgfk-91" style="edgeStyle=none;rounded=0;orthogonalLoop=1;jettySize=auto;html=1;exitX=1;exitY=0.5;exitDx=0;exitDy=0;entryX=0;entryY=0.5;entryDx=0;entryDy=0;" edge="1" parent="1" source="qff0FxHDjrdp41vnvgfk-67" target="qff0FxHDjrdp41vnvgfk-77">
          <mxGeometry relative="1" as="geometry" />
        </mxCell>
        <mxCell id="qff0FxHDjrdp41vnvgfk-67" value="" style="rounded=1;whiteSpace=wrap;html=1;strokeColor=#9673A6;fillColor=none;" vertex="1" parent="1">
          <mxGeometry x="300" y="30" width="40" height="330" as="geometry" />
        </mxCell>
        <mxCell id="qff0FxHDjrdp41vnvgfk-68" value="" style="ellipse;whiteSpace=wrap;html=1;aspect=fixed;fillColor=#B5559F;strokeColor=#9673A6;fontFamily=Times New Roman;" vertex="1" parent="1">
          <mxGeometry x="305" y="40" width="30" height="30" as="geometry" />
        </mxCell>
        <mxCell id="qff0FxHDjrdp41vnvgfk-69" value="" style="ellipse;whiteSpace=wrap;html=1;aspect=fixed;fillColor=#B5559F;strokeColor=#9673A6;" vertex="1" parent="1">
          <mxGeometry x="305" y="320" width="30" height="30" as="geometry" />
        </mxCell>
        <mxCell id="qff0FxHDjrdp41vnvgfk-71" value="" style="ellipse;whiteSpace=wrap;html=1;aspect=fixed;fillColor=#B5559F;strokeColor=#9673A6;fontFamily=Times New Roman;" vertex="1" parent="1">
          <mxGeometry x="385" y="80" width="30" height="30" as="geometry" />
        </mxCell>
        <mxCell id="qff0FxHDjrdp41vnvgfk-72" value="" style="ellipse;whiteSpace=wrap;html=1;aspect=fixed;fillColor=#B5559F;strokeColor=#9673A6;" vertex="1" parent="1">
          <mxGeometry x="385" y="120" width="30" height="30" as="geometry" />
        </mxCell>
        <mxCell id="qff0FxHDjrdp41vnvgfk-73" value="" style="ellipse;whiteSpace=wrap;html=1;aspect=fixed;fillColor=#B5559F;strokeColor=#9673A6;" vertex="1" parent="1">
          <mxGeometry x="385" y="160" width="30" height="30" as="geometry" />
        </mxCell>
        <mxCell id="qff0FxHDjrdp41vnvgfk-74" value="" style="ellipse;whiteSpace=wrap;html=1;aspect=fixed;fillColor=#B5559F;strokeColor=#9673A6;" vertex="1" parent="1">
          <mxGeometry x="385" y="200" width="30" height="30" as="geometry" />
        </mxCell>
        <mxCell id="qff0FxHDjrdp41vnvgfk-75" value="" style="ellipse;whiteSpace=wrap;html=1;aspect=fixed;fillColor=#B5559F;strokeColor=#9673A6;" vertex="1" parent="1">
          <mxGeometry x="385" y="240" width="30" height="30" as="geometry" />
        </mxCell>
        <mxCell id="qff0FxHDjrdp41vnvgfk-76" value="" style="ellipse;whiteSpace=wrap;html=1;aspect=fixed;fillColor=#B5559F;strokeColor=#9673A6;" vertex="1" parent="1">
          <mxGeometry x="385" y="280" width="30" height="30" as="geometry" />
        </mxCell>
        <mxCell id="qff0FxHDjrdp41vnvgfk-92" style="edgeStyle=none;rounded=0;orthogonalLoop=1;jettySize=auto;html=1;exitX=1;exitY=0.5;exitDx=0;exitDy=0;entryX=0;entryY=0.5;entryDx=0;entryDy=0;" edge="1" parent="1" source="qff0FxHDjrdp41vnvgfk-77" target="qff0FxHDjrdp41vnvgfk-86">
          <mxGeometry relative="1" as="geometry" />
        </mxCell>
        <mxCell id="qff0FxHDjrdp41vnvgfk-77" value="" style="rounded=1;whiteSpace=wrap;html=1;strokeColor=#9673A6;fillColor=none;" vertex="1" parent="1">
          <mxGeometry x="380" y="30" width="40" height="330" as="geometry" />
        </mxCell>
        <mxCell id="qff0FxHDjrdp41vnvgfk-78" value="" style="ellipse;whiteSpace=wrap;html=1;aspect=fixed;fillColor=#B5559F;strokeColor=#9673A6;fontFamily=Times New Roman;" vertex="1" parent="1">
          <mxGeometry x="385" y="40" width="30" height="30" as="geometry" />
        </mxCell>
        <mxCell id="qff0FxHDjrdp41vnvgfk-79" value="" style="ellipse;whiteSpace=wrap;html=1;aspect=fixed;fillColor=#B5559F;strokeColor=#9673A6;" vertex="1" parent="1">
          <mxGeometry x="385" y="320" width="30" height="30" as="geometry" />
        </mxCell>
        <mxCell id="qff0FxHDjrdp41vnvgfk-80" value="" style="ellipse;whiteSpace=wrap;html=1;aspect=fixed;fillColor=#B5559F;strokeColor=#9673A6;fontFamily=Times New Roman;" vertex="1" parent="1">
          <mxGeometry x="465" y="80" width="30" height="30" as="geometry" />
        </mxCell>
        <mxCell id="qff0FxHDjrdp41vnvgfk-81" value="" style="ellipse;whiteSpace=wrap;html=1;aspect=fixed;fillColor=#B5559F;strokeColor=#9673A6;" vertex="1" parent="1">
          <mxGeometry x="465" y="120" width="30" height="30" as="geometry" />
        </mxCell>
        <mxCell id="qff0FxHDjrdp41vnvgfk-82" value="" style="ellipse;whiteSpace=wrap;html=1;aspect=fixed;fillColor=#B5559F;strokeColor=#9673A6;" vertex="1" parent="1">
          <mxGeometry x="465" y="160" width="30" height="30" as="geometry" />
        </mxCell>
        <mxCell id="qff0FxHDjrdp41vnvgfk-83" value="" style="ellipse;whiteSpace=wrap;html=1;aspect=fixed;fillColor=#B5559F;strokeColor=#9673A6;" vertex="1" parent="1">
          <mxGeometry x="465" y="200" width="30" height="30" as="geometry" />
        </mxCell>
        <mxCell id="qff0FxHDjrdp41vnvgfk-84" value="" style="ellipse;whiteSpace=wrap;html=1;aspect=fixed;fillColor=#B5559F;strokeColor=#9673A6;" vertex="1" parent="1">
          <mxGeometry x="465" y="240" width="30" height="30" as="geometry" />
        </mxCell>
        <mxCell id="qff0FxHDjrdp41vnvgfk-85" value="" style="ellipse;whiteSpace=wrap;html=1;aspect=fixed;fillColor=#B5559F;strokeColor=#9673A6;" vertex="1" parent="1">
          <mxGeometry x="465" y="280" width="30" height="30" as="geometry" />
        </mxCell>
        <mxCell id="qff0FxHDjrdp41vnvgfk-99" style="edgeStyle=none;rounded=0;orthogonalLoop=1;jettySize=auto;html=1;exitX=1;exitY=0.5;exitDx=0;exitDy=0;" edge="1" parent="1" source="qff0FxHDjrdp41vnvgfk-86" target="qff0FxHDjrdp41vnvgfk-98">
          <mxGeometry relative="1" as="geometry" />
        </mxCell>
        <mxCell id="qff0FxHDjrdp41vnvgfk-86" value="" style="rounded=1;whiteSpace=wrap;html=1;strokeColor=#9673A6;fillColor=none;" vertex="1" parent="1">
          <mxGeometry x="460" y="70" width="40" height="250" as="geometry" />
        </mxCell>
        <mxCell id="qff0FxHDjrdp41vnvgfk-94" value="" style="ellipse;whiteSpace=wrap;html=1;aspect=fixed;fillColor=#B5559F;strokeColor=#9673A6;" vertex="1" parent="1">
          <mxGeometry x="545" y="120" width="30" height="30" as="geometry" />
        </mxCell>
        <mxCell id="qff0FxHDjrdp41vnvgfk-95" value="" style="ellipse;whiteSpace=wrap;html=1;aspect=fixed;fillColor=#B5559F;strokeColor=#9673A6;" vertex="1" parent="1">
          <mxGeometry x="545" y="160" width="30" height="30" as="geometry" />
        </mxCell>
        <mxCell id="qff0FxHDjrdp41vnvgfk-96" value="" style="ellipse;whiteSpace=wrap;html=1;aspect=fixed;fillColor=#B5559F;strokeColor=#9673A6;" vertex="1" parent="1">
          <mxGeometry x="545" y="200" width="30" height="30" as="geometry" />
        </mxCell>
        <mxCell id="qff0FxHDjrdp41vnvgfk-97" value="" style="ellipse;whiteSpace=wrap;html=1;aspect=fixed;fillColor=#B5559F;strokeColor=#9673A6;" vertex="1" parent="1">
          <mxGeometry x="545" y="240" width="30" height="30" as="geometry" />
        </mxCell>
        <mxCell id="qff0FxHDjrdp41vnvgfk-111" style="edgeStyle=none;rounded=0;orthogonalLoop=1;jettySize=auto;html=1;exitX=1;exitY=0.5;exitDx=0;exitDy=0;entryX=0;entryY=0.5;entryDx=0;entryDy=0;" edge="1" parent="1" source="qff0FxHDjrdp41vnvgfk-98" target="qff0FxHDjrdp41vnvgfk-106">
          <mxGeometry relative="1" as="geometry" />
        </mxCell>
        <mxCell id="qff0FxHDjrdp41vnvgfk-98" value="" style="rounded=1;whiteSpace=wrap;html=1;strokeColor=#9673A6;fillColor=none;" vertex="1" parent="1">
          <mxGeometry x="540" y="110" width="40" height="170" as="geometry" />
        </mxCell>
        <mxCell id="qff0FxHDjrdp41vnvgfk-100" value="" style="ellipse;whiteSpace=wrap;html=1;aspect=fixed;fillColor=#B5559F;strokeColor=#9673A6;" vertex="1" parent="1">
          <mxGeometry x="625" y="140" width="30" height="30" as="geometry" />
        </mxCell>
        <mxCell id="qff0FxHDjrdp41vnvgfk-101" value="" style="ellipse;whiteSpace=wrap;html=1;aspect=fixed;fillColor=#B5559F;strokeColor=#9673A6;" vertex="1" parent="1">
          <mxGeometry x="625" y="180" width="30" height="30" as="geometry" />
        </mxCell>
        <mxCell id="qff0FxHDjrdp41vnvgfk-102" value="" style="ellipse;whiteSpace=wrap;html=1;aspect=fixed;fillColor=#B5559F;strokeColor=#9673A6;" vertex="1" parent="1">
          <mxGeometry x="625" y="220" width="30" height="30" as="geometry" />
        </mxCell>
        <mxCell id="qff0FxHDjrdp41vnvgfk-106" value="" style="rounded=1;whiteSpace=wrap;html=1;strokeColor=#9673A6;fillColor=none;" vertex="1" parent="1">
          <mxGeometry x="620" y="130" width="40" height="130" as="geometry" />
        </mxCell>
        <mxCell id="qff0FxHDjrdp41vnvgfk-113" value="Input" style="text;html=1;strokeColor=none;fillColor=none;align=center;verticalAlign=middle;whiteSpace=wrap;rounded=0;fontFamily=Times New Roman;" vertex="1" parent="1">
          <mxGeometry x="75" y="40" width="40" height="20" as="geometry" />
        </mxCell>
        <mxCell id="qff0FxHDjrdp41vnvgfk-114" value="Layer1" style="text;html=1;strokeColor=none;fillColor=none;align=center;verticalAlign=middle;whiteSpace=wrap;rounded=0;fontFamily=Times New Roman;" vertex="1" parent="1">
          <mxGeometry x="150" y="80" width="40" height="20" as="geometry" />
        </mxCell>
        <mxCell id="qff0FxHDjrdp41vnvgfk-115" value="Layer1" style="text;html=1;strokeColor=none;fillColor=none;align=center;verticalAlign=middle;whiteSpace=wrap;rounded=0;fontFamily=Times New Roman;" vertex="1" parent="1">
          <mxGeometry x="225" y="40" width="40" height="20" as="geometry" />
        </mxCell>
        <mxCell id="qff0FxHDjrdp41vnvgfk-116" value="Layer1" style="text;html=1;strokeColor=none;fillColor=none;align=center;verticalAlign=middle;whiteSpace=wrap;rounded=0;fontFamily=Times New Roman;" vertex="1" parent="1">
          <mxGeometry x="300" width="40" height="20" as="geometry" />
        </mxCell>
        <mxCell id="qff0FxHDjrdp41vnvgfk-117" value="Layer1" style="text;html=1;strokeColor=none;fillColor=none;align=center;verticalAlign=middle;whiteSpace=wrap;rounded=0;fontFamily=Times New Roman;" vertex="1" parent="1">
          <mxGeometry x="380" width="40" height="20" as="geometry" />
        </mxCell>
        <mxCell id="qff0FxHDjrdp41vnvgfk-118" value="Layer1" style="text;html=1;strokeColor=none;fillColor=none;align=center;verticalAlign=middle;whiteSpace=wrap;rounded=0;fontFamily=Times New Roman;" vertex="1" parent="1">
          <mxGeometry x="460" y="40" width="40" height="20" as="geometry" />
        </mxCell>
        <mxCell id="qff0FxHDjrdp41vnvgfk-119" value="Layer1" style="text;html=1;strokeColor=none;fillColor=none;align=center;verticalAlign=middle;whiteSpace=wrap;rounded=0;fontFamily=Times New Roman;" vertex="1" parent="1">
          <mxGeometry x="540" y="80" width="40" height="20" as="geometry" />
        </mxCell>
        <mxCell id="qff0FxHDjrdp41vnvgfk-120" value="Output" style="text;html=1;strokeColor=none;fillColor=none;align=center;verticalAlign=middle;whiteSpace=wrap;rounded=0;fontFamily=Times New Roman;" vertex="1" parent="1">
          <mxGeometry x="620" y="100" width="40" height="20" as="geometry" />
        </mxCell>
        <mxCell id="qff0FxHDjrdp41vnvgfk-121" value="" style="ellipse;whiteSpace=wrap;html=1;aspect=fixed;fillColor=#B5559F;strokeColor=#9673A6;fontFamily=Times New Roman;" vertex="1" parent="1">
          <mxGeometry x="80" y="470" width="30" height="30" as="geometry" />
        </mxCell>
        <mxCell id="qff0FxHDjrdp41vnvgfk-122" value="" style="ellipse;whiteSpace=wrap;html=1;aspect=fixed;fillColor=#B5559F;strokeColor=#9673A6;" vertex="1" parent="1">
          <mxGeometry x="80" y="510" width="30" height="30" as="geometry" />
        </mxCell>
        <mxCell id="qff0FxHDjrdp41vnvgfk-123" value="" style="ellipse;whiteSpace=wrap;html=1;aspect=fixed;fillColor=#B5559F;strokeColor=#9673A6;" vertex="1" parent="1">
          <mxGeometry x="80" y="550" width="30" height="30" as="geometry" />
        </mxCell>
        <mxCell id="qff0FxHDjrdp41vnvgfk-124" value="" style="ellipse;whiteSpace=wrap;html=1;aspect=fixed;fillColor=#B5559F;strokeColor=#9673A6;" vertex="1" parent="1">
          <mxGeometry x="80" y="590" width="30" height="30" as="geometry" />
        </mxCell>
        <mxCell id="qff0FxHDjrdp41vnvgfk-125" value="" style="ellipse;whiteSpace=wrap;html=1;aspect=fixed;fillColor=#B5559F;strokeColor=#9673A6;" vertex="1" parent="1">
          <mxGeometry x="80" y="630" width="30" height="30" as="geometry" />
        </mxCell>
        <mxCell id="qff0FxHDjrdp41vnvgfk-126" value="" style="ellipse;whiteSpace=wrap;html=1;aspect=fixed;fillColor=#B5559F;strokeColor=#9673A6;" vertex="1" parent="1">
          <mxGeometry x="80" y="670" width="30" height="30" as="geometry" />
        </mxCell>
        <mxCell id="qff0FxHDjrdp41vnvgfk-127" value="" style="ellipse;whiteSpace=wrap;html=1;aspect=fixed;fillColor=#B5559F;strokeColor=#9673A6;" vertex="1" parent="1">
          <mxGeometry x="155" y="510" width="30" height="30" as="geometry" />
        </mxCell>
        <mxCell id="qff0FxHDjrdp41vnvgfk-128" value="" style="ellipse;whiteSpace=wrap;html=1;aspect=fixed;fillColor=#B5559F;strokeColor=#9673A6;" vertex="1" parent="1">
          <mxGeometry x="155" y="550" width="30" height="30" as="geometry" />
        </mxCell>
        <mxCell id="qff0FxHDjrdp41vnvgfk-129" value="" style="ellipse;whiteSpace=wrap;html=1;aspect=fixed;fillColor=#B5559F;strokeColor=#9673A6;" vertex="1" parent="1">
          <mxGeometry x="155" y="590" width="30" height="30" as="geometry" />
        </mxCell>
        <mxCell id="qff0FxHDjrdp41vnvgfk-130" value="" style="ellipse;whiteSpace=wrap;html=1;aspect=fixed;fillColor=#B5559F;strokeColor=#9673A6;" vertex="1" parent="1">
          <mxGeometry x="155" y="630" width="30" height="30" as="geometry" />
        </mxCell>
        <mxCell id="qff0FxHDjrdp41vnvgfk-131" value="" style="ellipse;whiteSpace=wrap;html=1;aspect=fixed;fillColor=#B5559F;strokeColor=#9673A6;fontFamily=Times New Roman;" vertex="1" parent="1">
          <mxGeometry x="230" y="470" width="30" height="30" as="geometry" />
        </mxCell>
        <mxCell id="qff0FxHDjrdp41vnvgfk-132" value="" style="ellipse;whiteSpace=wrap;html=1;aspect=fixed;fillColor=#B5559F;strokeColor=#9673A6;" vertex="1" parent="1">
          <mxGeometry x="230" y="510" width="30" height="30" as="geometry" />
        </mxCell>
        <mxCell id="qff0FxHDjrdp41vnvgfk-133" value="" style="ellipse;whiteSpace=wrap;html=1;aspect=fixed;fillColor=#B5559F;strokeColor=#9673A6;" vertex="1" parent="1">
          <mxGeometry x="230" y="550" width="30" height="30" as="geometry" />
        </mxCell>
        <mxCell id="qff0FxHDjrdp41vnvgfk-134" value="" style="ellipse;whiteSpace=wrap;html=1;aspect=fixed;fillColor=#B5559F;strokeColor=#9673A6;" vertex="1" parent="1">
          <mxGeometry x="230" y="590" width="30" height="30" as="geometry" />
        </mxCell>
        <mxCell id="qff0FxHDjrdp41vnvgfk-135" value="" style="ellipse;whiteSpace=wrap;html=1;aspect=fixed;fillColor=#B5559F;strokeColor=#9673A6;" vertex="1" parent="1">
          <mxGeometry x="230" y="630" width="30" height="30" as="geometry" />
        </mxCell>
        <mxCell id="qff0FxHDjrdp41vnvgfk-136" value="" style="ellipse;whiteSpace=wrap;html=1;aspect=fixed;fillColor=#B5559F;strokeColor=#9673A6;" vertex="1" parent="1">
          <mxGeometry x="230" y="670" width="30" height="30" as="geometry" />
        </mxCell>
        <mxCell id="qff0FxHDjrdp41vnvgfk-137" value="" style="ellipse;whiteSpace=wrap;html=1;aspect=fixed;fillColor=#B5559F;strokeColor=#9673A6;fontFamily=Times New Roman;" vertex="1" parent="1">
          <mxGeometry x="305" y="470" width="30" height="30" as="geometry" />
        </mxCell>
        <mxCell id="qff0FxHDjrdp41vnvgfk-138" value="" style="ellipse;whiteSpace=wrap;html=1;aspect=fixed;fillColor=#B5559F;strokeColor=#9673A6;" vertex="1" parent="1">
          <mxGeometry x="305" y="510" width="30" height="30" as="geometry" />
        </mxCell>
        <mxCell id="qff0FxHDjrdp41vnvgfk-139" value="" style="ellipse;whiteSpace=wrap;html=1;aspect=fixed;fillColor=#B5559F;strokeColor=#9673A6;" vertex="1" parent="1">
          <mxGeometry x="305" y="550" width="30" height="30" as="geometry" />
        </mxCell>
        <mxCell id="qff0FxHDjrdp41vnvgfk-140" value="" style="ellipse;whiteSpace=wrap;html=1;aspect=fixed;fillColor=#B5559F;strokeColor=#9673A6;" vertex="1" parent="1">
          <mxGeometry x="305" y="590" width="30" height="30" as="geometry" />
        </mxCell>
        <mxCell id="qff0FxHDjrdp41vnvgfk-141" value="" style="ellipse;whiteSpace=wrap;html=1;aspect=fixed;fillColor=#B5559F;strokeColor=#9673A6;" vertex="1" parent="1">
          <mxGeometry x="305" y="630" width="30" height="30" as="geometry" />
        </mxCell>
        <mxCell id="qff0FxHDjrdp41vnvgfk-142" value="" style="ellipse;whiteSpace=wrap;html=1;aspect=fixed;fillColor=#B5559F;strokeColor=#9673A6;" vertex="1" parent="1">
          <mxGeometry x="305" y="670" width="30" height="30" as="geometry" />
        </mxCell>
        <mxCell id="qff0FxHDjrdp41vnvgfk-143" style="edgeStyle=none;rounded=0;orthogonalLoop=1;jettySize=auto;html=1;exitX=1;exitY=0.5;exitDx=0;exitDy=0;" edge="1" parent="1" source="qff0FxHDjrdp41vnvgfk-144" target="qff0FxHDjrdp41vnvgfk-146">
          <mxGeometry relative="1" as="geometry" />
        </mxCell>
        <mxCell id="qff0FxHDjrdp41vnvgfk-144" value="" style="rounded=1;whiteSpace=wrap;html=1;strokeColor=#9673A6;fillColor=none;" vertex="1" parent="1">
          <mxGeometry x="75" y="460" width="40" height="250" as="geometry" />
        </mxCell>
        <mxCell id="qff0FxHDjrdp41vnvgfk-145" style="edgeStyle=none;rounded=0;orthogonalLoop=1;jettySize=auto;html=1;exitX=1;exitY=0.5;exitDx=0;exitDy=0;" edge="1" parent="1" source="qff0FxHDjrdp41vnvgfk-146" target="qff0FxHDjrdp41vnvgfk-148">
          <mxGeometry relative="1" as="geometry" />
        </mxCell>
        <mxCell id="qff0FxHDjrdp41vnvgfk-146" value="" style="rounded=1;whiteSpace=wrap;html=1;strokeColor=#9673A6;fillColor=none;" vertex="1" parent="1">
          <mxGeometry x="150" y="500" width="40" height="170" as="geometry" />
        </mxCell>
        <mxCell id="qff0FxHDjrdp41vnvgfk-147" style="edgeStyle=none;rounded=0;orthogonalLoop=1;jettySize=auto;html=1;exitX=1;exitY=0.5;exitDx=0;exitDy=0;entryX=0;entryY=0.5;entryDx=0;entryDy=0;" edge="1" parent="1" source="qff0FxHDjrdp41vnvgfk-148" target="qff0FxHDjrdp41vnvgfk-150">
          <mxGeometry relative="1" as="geometry" />
        </mxCell>
        <mxCell id="qff0FxHDjrdp41vnvgfk-148" value="" style="rounded=1;whiteSpace=wrap;html=1;strokeColor=#9673A6;fillColor=none;" vertex="1" parent="1">
          <mxGeometry x="225" y="460" width="40" height="250" as="geometry" />
        </mxCell>
        <mxCell id="qff0FxHDjrdp41vnvgfk-149" style="edgeStyle=none;rounded=0;orthogonalLoop=1;jettySize=auto;html=1;exitX=1;exitY=0.5;exitDx=0;exitDy=0;entryX=0;entryY=0.5;entryDx=0;entryDy=0;" edge="1" parent="1" source="qff0FxHDjrdp41vnvgfk-150" target="qff0FxHDjrdp41vnvgfk-160">
          <mxGeometry relative="1" as="geometry" />
        </mxCell>
        <mxCell id="qff0FxHDjrdp41vnvgfk-150" value="" style="rounded=1;whiteSpace=wrap;html=1;strokeColor=#9673A6;fillColor=none;" vertex="1" parent="1">
          <mxGeometry x="300" y="420" width="40" height="330" as="geometry" />
        </mxCell>
        <mxCell id="qff0FxHDjrdp41vnvgfk-151" value="" style="ellipse;whiteSpace=wrap;html=1;aspect=fixed;fillColor=#B5559F;strokeColor=#9673A6;fontFamily=Times New Roman;" vertex="1" parent="1">
          <mxGeometry x="305" y="430" width="30" height="30" as="geometry" />
        </mxCell>
        <mxCell id="qff0FxHDjrdp41vnvgfk-152" value="" style="ellipse;whiteSpace=wrap;html=1;aspect=fixed;fillColor=#B5559F;strokeColor=#9673A6;" vertex="1" parent="1">
          <mxGeometry x="305" y="710" width="30" height="30" as="geometry" />
        </mxCell>
        <mxCell id="qff0FxHDjrdp41vnvgfk-153" value="" style="ellipse;whiteSpace=wrap;html=1;aspect=fixed;fillColor=#B5559F;strokeColor=#9673A6;fontFamily=Times New Roman;" vertex="1" parent="1">
          <mxGeometry x="385" y="470" width="30" height="30" as="geometry" />
        </mxCell>
        <mxCell id="qff0FxHDjrdp41vnvgfk-154" value="" style="ellipse;whiteSpace=wrap;html=1;aspect=fixed;fillColor=#B5559F;strokeColor=#9673A6;" vertex="1" parent="1">
          <mxGeometry x="385" y="510" width="30" height="30" as="geometry" />
        </mxCell>
        <mxCell id="qff0FxHDjrdp41vnvgfk-155" value="" style="ellipse;whiteSpace=wrap;html=1;aspect=fixed;fillColor=#B5559F;strokeColor=#9673A6;" vertex="1" parent="1">
          <mxGeometry x="385" y="550" width="30" height="30" as="geometry" />
        </mxCell>
        <mxCell id="qff0FxHDjrdp41vnvgfk-156" value="" style="ellipse;whiteSpace=wrap;html=1;aspect=fixed;fillColor=#B5559F;strokeColor=#9673A6;" vertex="1" parent="1">
          <mxGeometry x="385" y="590" width="30" height="30" as="geometry" />
        </mxCell>
        <mxCell id="qff0FxHDjrdp41vnvgfk-157" value="" style="ellipse;whiteSpace=wrap;html=1;aspect=fixed;fillColor=#B5559F;strokeColor=#9673A6;" vertex="1" parent="1">
          <mxGeometry x="385" y="630" width="30" height="30" as="geometry" />
        </mxCell>
        <mxCell id="qff0FxHDjrdp41vnvgfk-158" value="" style="ellipse;whiteSpace=wrap;html=1;aspect=fixed;fillColor=#B5559F;strokeColor=#9673A6;" vertex="1" parent="1">
          <mxGeometry x="385" y="670" width="30" height="30" as="geometry" />
        </mxCell>
        <mxCell id="qff0FxHDjrdp41vnvgfk-159" style="edgeStyle=none;rounded=0;orthogonalLoop=1;jettySize=auto;html=1;exitX=1;exitY=0.5;exitDx=0;exitDy=0;entryX=0;entryY=0.5;entryDx=0;entryDy=0;" edge="1" parent="1" source="qff0FxHDjrdp41vnvgfk-160" target="qff0FxHDjrdp41vnvgfk-170">
          <mxGeometry relative="1" as="geometry" />
        </mxCell>
        <mxCell id="qff0FxHDjrdp41vnvgfk-160" value="" style="rounded=1;whiteSpace=wrap;html=1;strokeColor=#9673A6;fillColor=none;" vertex="1" parent="1">
          <mxGeometry x="380" y="420" width="40" height="330" as="geometry" />
        </mxCell>
        <mxCell id="qff0FxHDjrdp41vnvgfk-161" value="" style="ellipse;whiteSpace=wrap;html=1;aspect=fixed;fillColor=#8CFA64;strokeColor=#25A63A;fontFamily=Times New Roman;" vertex="1" parent="1">
          <mxGeometry x="385" y="430" width="30" height="30" as="geometry" />
        </mxCell>
        <mxCell id="qff0FxHDjrdp41vnvgfk-162" value="" style="ellipse;whiteSpace=wrap;html=1;aspect=fixed;fillColor=#B5559F;strokeColor=#9673A6;" vertex="1" parent="1">
          <mxGeometry x="385" y="710" width="30" height="30" as="geometry" />
        </mxCell>
        <mxCell id="qff0FxHDjrdp41vnvgfk-163" value="" style="ellipse;whiteSpace=wrap;html=1;aspect=fixed;fillColor=#B5559F;strokeColor=#9673A6;fontFamily=Times New Roman;" vertex="1" parent="1">
          <mxGeometry x="465" y="470" width="30" height="30" as="geometry" />
        </mxCell>
        <mxCell id="qff0FxHDjrdp41vnvgfk-164" value="" style="ellipse;whiteSpace=wrap;html=1;aspect=fixed;fillColor=#B5559F;strokeColor=#9673A6;" vertex="1" parent="1">
          <mxGeometry x="465" y="510" width="30" height="30" as="geometry" />
        </mxCell>
        <mxCell id="qff0FxHDjrdp41vnvgfk-165" value="" style="ellipse;whiteSpace=wrap;html=1;aspect=fixed;fillColor=#B5559F;strokeColor=#9673A6;" vertex="1" parent="1">
          <mxGeometry x="465" y="550" width="30" height="30" as="geometry" />
        </mxCell>
        <mxCell id="qff0FxHDjrdp41vnvgfk-166" value="" style="ellipse;whiteSpace=wrap;html=1;aspect=fixed;fillColor=#B5559F;strokeColor=#9673A6;" vertex="1" parent="1">
          <mxGeometry x="465" y="590" width="30" height="30" as="geometry" />
        </mxCell>
        <mxCell id="qff0FxHDjrdp41vnvgfk-167" value="" style="ellipse;whiteSpace=wrap;html=1;aspect=fixed;fillColor=#B5559F;strokeColor=#9673A6;" vertex="1" parent="1">
          <mxGeometry x="465" y="630" width="30" height="30" as="geometry" />
        </mxCell>
        <mxCell id="qff0FxHDjrdp41vnvgfk-168" value="" style="ellipse;whiteSpace=wrap;html=1;aspect=fixed;fillColor=#B5559F;strokeColor=#9673A6;" vertex="1" parent="1">
          <mxGeometry x="465" y="670" width="30" height="30" as="geometry" />
        </mxCell>
        <mxCell id="qff0FxHDjrdp41vnvgfk-169" style="edgeStyle=none;rounded=0;orthogonalLoop=1;jettySize=auto;html=1;exitX=1;exitY=0.5;exitDx=0;exitDy=0;" edge="1" parent="1" source="qff0FxHDjrdp41vnvgfk-170" target="qff0FxHDjrdp41vnvgfk-176">
          <mxGeometry relative="1" as="geometry" />
        </mxCell>
        <mxCell id="qff0FxHDjrdp41vnvgfk-170" value="" style="rounded=1;whiteSpace=wrap;html=1;strokeColor=#9673A6;fillColor=none;" vertex="1" parent="1">
          <mxGeometry x="460" y="460" width="40" height="250" as="geometry" />
        </mxCell>
        <mxCell id="qff0FxHDjrdp41vnvgfk-171" value="" style="ellipse;whiteSpace=wrap;html=1;aspect=fixed;fillColor=#B5559F;strokeColor=#9673A6;" vertex="1" parent="1">
          <mxGeometry x="545" y="510" width="30" height="30" as="geometry" />
        </mxCell>
        <mxCell id="qff0FxHDjrdp41vnvgfk-172" value="" style="ellipse;whiteSpace=wrap;html=1;aspect=fixed;fillColor=#B5559F;strokeColor=#9673A6;" vertex="1" parent="1">
          <mxGeometry x="545" y="550" width="30" height="30" as="geometry" />
        </mxCell>
        <mxCell id="qff0FxHDjrdp41vnvgfk-173" value="" style="ellipse;whiteSpace=wrap;html=1;aspect=fixed;fillColor=#B5559F;strokeColor=#9673A6;" vertex="1" parent="1">
          <mxGeometry x="545" y="590" width="30" height="30" as="geometry" />
        </mxCell>
        <mxCell id="qff0FxHDjrdp41vnvgfk-174" value="" style="ellipse;whiteSpace=wrap;html=1;aspect=fixed;fillColor=#B5559F;strokeColor=#9673A6;" vertex="1" parent="1">
          <mxGeometry x="545" y="630" width="30" height="30" as="geometry" />
        </mxCell>
        <mxCell id="qff0FxHDjrdp41vnvgfk-175" style="edgeStyle=none;rounded=0;orthogonalLoop=1;jettySize=auto;html=1;exitX=1;exitY=0.5;exitDx=0;exitDy=0;entryX=0;entryY=0.5;entryDx=0;entryDy=0;" edge="1" parent="1" source="qff0FxHDjrdp41vnvgfk-176" target="qff0FxHDjrdp41vnvgfk-180">
          <mxGeometry relative="1" as="geometry" />
        </mxCell>
        <mxCell id="qff0FxHDjrdp41vnvgfk-176" value="" style="rounded=1;whiteSpace=wrap;html=1;strokeColor=#9673A6;fillColor=none;" vertex="1" parent="1">
          <mxGeometry x="540" y="500" width="40" height="170" as="geometry" />
        </mxCell>
        <mxCell id="qff0FxHDjrdp41vnvgfk-177" value="" style="ellipse;whiteSpace=wrap;html=1;aspect=fixed;fillColor=#B5559F;strokeColor=#9673A6;" vertex="1" parent="1">
          <mxGeometry x="625" y="530" width="30" height="30" as="geometry" />
        </mxCell>
        <mxCell id="qff0FxHDjrdp41vnvgfk-178" value="" style="ellipse;whiteSpace=wrap;html=1;aspect=fixed;fillColor=#B5559F;strokeColor=#9673A6;" vertex="1" parent="1">
          <mxGeometry x="625" y="570" width="30" height="30" as="geometry" />
        </mxCell>
        <mxCell id="qff0FxHDjrdp41vnvgfk-179" value="" style="ellipse;whiteSpace=wrap;html=1;aspect=fixed;fillColor=#B5559F;strokeColor=#9673A6;" vertex="1" parent="1">
          <mxGeometry x="625" y="610" width="30" height="30" as="geometry" />
        </mxCell>
        <mxCell id="qff0FxHDjrdp41vnvgfk-180" value="" style="rounded=1;whiteSpace=wrap;html=1;strokeColor=#9673A6;fillColor=none;" vertex="1" parent="1">
          <mxGeometry x="620" y="520" width="40" height="130" as="geometry" />
        </mxCell>
        <mxCell id="qff0FxHDjrdp41vnvgfk-181" value="Input" style="text;html=1;strokeColor=none;fillColor=none;align=center;verticalAlign=middle;whiteSpace=wrap;rounded=0;fontFamily=Times New Roman;" vertex="1" parent="1">
          <mxGeometry x="75" y="430" width="40" height="20" as="geometry" />
        </mxCell>
        <mxCell id="qff0FxHDjrdp41vnvgfk-182" value="Layer1" style="text;html=1;strokeColor=none;fillColor=none;align=center;verticalAlign=middle;whiteSpace=wrap;rounded=0;fontFamily=Times New Roman;" vertex="1" parent="1">
          <mxGeometry x="150" y="470" width="40" height="20" as="geometry" />
        </mxCell>
        <mxCell id="qff0FxHDjrdp41vnvgfk-183" value="Layer1" style="text;html=1;strokeColor=none;fillColor=none;align=center;verticalAlign=middle;whiteSpace=wrap;rounded=0;fontFamily=Times New Roman;" vertex="1" parent="1">
          <mxGeometry x="225" y="430" width="40" height="20" as="geometry" />
        </mxCell>
        <mxCell id="qff0FxHDjrdp41vnvgfk-184" value="Layer1" style="text;html=1;strokeColor=none;fillColor=none;align=center;verticalAlign=middle;whiteSpace=wrap;rounded=0;fontFamily=Times New Roman;" vertex="1" parent="1">
          <mxGeometry x="300" y="390" width="40" height="20" as="geometry" />
        </mxCell>
        <mxCell id="qff0FxHDjrdp41vnvgfk-185" value="Layer1" style="text;html=1;strokeColor=none;fillColor=none;align=center;verticalAlign=middle;whiteSpace=wrap;rounded=0;fontFamily=Times New Roman;" vertex="1" parent="1">
          <mxGeometry x="380" y="390" width="40" height="20" as="geometry" />
        </mxCell>
        <mxCell id="qff0FxHDjrdp41vnvgfk-186" value="Layer1" style="text;html=1;strokeColor=none;fillColor=none;align=center;verticalAlign=middle;whiteSpace=wrap;rounded=0;fontFamily=Times New Roman;" vertex="1" parent="1">
          <mxGeometry x="460" y="430" width="40" height="20" as="geometry" />
        </mxCell>
        <mxCell id="qff0FxHDjrdp41vnvgfk-187" value="Layer1" style="text;html=1;strokeColor=none;fillColor=none;align=center;verticalAlign=middle;whiteSpace=wrap;rounded=0;fontFamily=Times New Roman;" vertex="1" parent="1">
          <mxGeometry x="540" y="470" width="40" height="20" as="geometry" />
        </mxCell>
        <mxCell id="qff0FxHDjrdp41vnvgfk-188" value="Output" style="text;html=1;strokeColor=none;fillColor=none;align=center;verticalAlign=middle;whiteSpace=wrap;rounded=0;fontFamily=Times New Roman;" vertex="1" parent="1">
          <mxGeometry x="620" y="490" width="40" height="20" as="geometry" />
        </mxCell>
      </root>
    </mxGraphModel>
  </diagram>
</mxfile>
